<svg xmlns="http://www.w3.org/2000/svg" xmlns:svgjs="http://svgjs.com/svgjs" xmlns:xlink="http://www.w3.org/1999/xlink" width="288" height="288"><svg xmlns="http://www.w3.org/2000/svg" width="288" height="288" class="sc-fHuLxr jOTbKI" viewBox="0 0 50 50"><path fill="#fff" d="m 22.507206,49.595036 c -3.839305,-0.36485 -7.72611,-1.732319 -11.064938,-3.893265 -2.7978042,-1.809887 -3.4291927,-2.5551 -3.4291927,-4.040355 0,-2.983725 3.3075477,-8.21056 8.9668737,-14.16767 3.213132,-3.384198 7.689618,-7.34871 8.173295,-7.241842 0.94187,0.20857 8.466399,7.488906 11.283897,10.916772 4.454474,5.418165 6.501564,9.856119 5.461221,11.834353 -0.790684,1.503643 -5.698136,4.443126 -9.302843,5.57215 -2.971581,0.930798 -6.874025,1.324952 -10.088313,1.019857 z M 4.2340126,38.559329 C 1.9088811,35.021147 0.73415086,31.538122 0.16763899,26.50032 -0.02003976,24.836949 0.04599538,23.886041 0.59223331,20.470815 1.2717001,16.219021 3.7144204,11.294982 6.6512458,8.267015 7.9012791,6.9799849 8.0124961,6.9455116 9.5370966,7.4568757 11.384921,8.077408 13.360182,9.4310872 16.424444,12.179816 l 1.789899,1.605339 -0.978941,1.189353 c -4.534413,5.521588 -9.3202208,13.352935 -11.1217053,18.196534 -0.9789419,2.631516 -1.3728356,5.274524 -0.949979,6.374819 0.2838352,0.743489 0.02317,0.466548 -0.9326015,-0.984808 z M 45.044298,39.160902 C 45.274264,38.04854 44.983478,36.006529 44.302852,33.946133 42.828647,29.484619 37.899762,21.185001 33.374039,15.541607 l -1.424969,-1.776561 1.541978,-1.403668 c 2.012333,-1.832868 3.409498,-2.9302908 4.917879,-3.8628125 1.189212,-0.7354455 2.889327,-1.3864302 3.620346,-1.3864302 0.450082,0 2.036663,1.6375155 3.316819,3.4186727 1.98337,2.757921 3.441936,6.107646 4.181064,9.589522 0.477887,2.252302 0.517855,7.067172 0.07705,9.313728 -0.36493,1.843211 -1.129549,4.23226 -1.870995,5.853113 -0.561878,1.214061 -1.946299,3.572656 -2.554517,4.340278 -0.312798,0.394728 -0.312798,0.394154 -0.139022,-0.457355 z M 22.918477,6.2698203 C 20.829682,5.2183627 17.607863,4.0893392 15.82839,3.7848192 15.20511,3.6785241 14.141019,3.6181945 13.465028,3.6526689 11.996035,3.7262109 12.061492,3.650385 14.416743,2.5466266 16.374628,1.6290436 18.008129,1.0895255 20.226677,0.62757424 22.720371,0.10759098 27.409445,0.10184493 29.86375,0.61493532 32.513844,1.1693929 35.635451,2.3213995 37.394073,3.3958394 L 37.917719,3.7141492 36.71866,3.6543965 C 34.334445,3.5348861 30.86007,4.490391 27.129664,6.289934 26.00475,6.8334749 25.026967,7.2666979 24.955139,7.2552067 24.883899,7.2414175 23.966929,6.7984262 22.916159,6.2698248 Z" class="colorcurrentColor svgShape"/></svg></svg>